<svg xmlns="http://www.w3.org/2000/svg" xmlns:xlink="http://www.w3.org/1999/xlink" version="1.1" x="0px" y="0px" viewBox="0 0 64 80" style="enable-background:new 0 0 64 64;" xml:space="preserve"><g><path d="M59.25,56.13h-9.37V10.89c0-0.4-0.229-0.76-0.6-0.92L33.54,3.13c-0.31-0.13-0.67-0.1-0.95,0.08   c-0.28,0.19-0.45,0.5-0.45,0.84V5.1H11.62c-0.55,0-1,0.45-1,1v50.03H4.75c-0.55,0-1,0.45-1,1c0,0.55,0.45,1,1,1h27.39v1.82   c0,0.3,0.13,0.57,0.35,0.76c0.19,0.16,0.42,0.24,0.649,0.24c0.051,0,0.11,0,0.16-0.01l15.74-2.59c0.21-0.03,0.39-0.13,0.53-0.27   c0.09,0.03,0.189,0.05,0.29,0.05h9.39c0.55,0,1-0.45,1-1C60.25,56.58,59.8,56.13,59.25,56.13z M32.14,56.13H16.81V11.29h15.33   V56.13z M32.14,9.29H15.81c-0.55,0-1,0.45-1,1v45.79c0,0.02,0,0.03,0.01,0.05h-2.2V7.1h19.52V9.29z M47.88,56.51l-13.74,2.26V5.57   l13.74,5.98V56.51z"/><path d="M38.31,29.38c-1.55,0-2.81,1.26-2.81,2.81c0,1.55,1.26,2.81,2.81,2.81c1.551,0,2.811-1.26,2.811-2.81   C41.12,30.64,39.86,29.38,38.31,29.38z M38.31,33c-0.449,0-0.81-0.36-0.81-0.81c0-0.45,0.36-0.81,0.81-0.81   c0.45,0,0.811,0.36,0.811,0.81C39.12,32.64,38.76,33,38.31,33z"/></g><text x="0" y="79" fill="#000000" font-size="5px" font-weight="bold" font-family="'Helvetica Neue', Helvetica, Arial-Unicode, Arial, Sans-serif">Created by Samsul Rizal</text><text x="0" y="84" fill="#000000" font-size="5px" font-weight="bold" font-family="'Helvetica Neue', Helvetica, Arial-Unicode, Arial, Sans-serif">from the Noun Project</text></svg>